<svg width="128" height="128" viewBox="0 0 46 39" fill="none" xmlns="http://www.w3.org/2000/svg"><path d="M1.401 5.907A5.916 5.916 0 017.636.327L35.29 1.86a5.916 5.916 0 01-.654 11.814L6.981 12.14a5.916 5.916 0 01-5.58-6.234z" fill="#193843"></path><path d="M5.167 15.1a5.916 5.916 0 015.578-6.237L38.4 7.321a5.916 5.916 0 01.659 11.814l-27.655 1.542a5.916 5.916 0 01-6.237-5.578z" fill="#193843"></path><path d="M11.692 11.435a2.39 2.39 0 01-.824-.189 2.4 2.4 0 01-.716-.457l.89-1.317a.556.556 0 00.213.158.65.65 0 00.27.077.413.413 0 00.224-.041.358.358 0 00.155-.15.535.535 0 00.065-.24l.279-5.567 2 .1-.271 5.41a2.51 2.51 0 01-.345 1.195c-.2.342-.467.603-.8.783-.332.18-.712.26-1.14.238zm.58-8.19l.084-1.683 2 .1-.085 1.684-2-.1zM17.701 9.637a3.441 3.441 0 01-1.293-.297c-.371-.173-.68-.4-.926-.68a2.905 2.905 0 01-.532-.955 3.124 3.124 0 01-.136-1.093c.02-.379.1-.737.244-1.075.151-.344.36-.643.625-.897.273-.253.603-.448.99-.583.386-.135.825-.19 1.316-.166.498.025.93.124 1.294.297.37.173.676.4.915.679.247.28.424.598.533.955.116.35.164.715.145 1.094a2.975 2.975 0 01-.254 1.074 2.678 2.678 0 01-.625.897 2.674 2.674 0 01-.979.584c-.38.136-.819.19-1.317.166zm-.834-2.922c-.013.245.019.462.094.648.075.18.184.322.327.428a.94.94 0 00.498.162c.19.01.36-.028.512-.111.152-.091.275-.222.368-.393.093-.179.146-.39.158-.636a1.45 1.45 0 00-.095-.638.92.92 0 00-.824-.6.92.92 0 00-.88.515 1.45 1.45 0 00-.158.625zM24.966 10.001c-.414-.02-.768-.12-1.062-.296a1.83 1.83 0 01-.679-.762l-.043.863-1.737-.087.386-7.683 2 .1-.15 2.969c.177-.294.416-.51.719-.65.302-.147.654-.21 1.054-.19.337.017.645.106.925.268.28.155.52.367.717.637.205.27.358.588.46.952.1.356.141.742.12 1.156a3.18 3.18 0 01-.256 1.126c-.144.338-.338.63-.582.878a2.289 2.289 0 01-.84.56c-.317.125-.66.178-1.032.16zm-.495-1.713c.162.008.31-.012.447-.062.136-.05.255-.12.358-.214.104-.1.184-.22.24-.357.063-.138.1-.294.108-.47a1.346 1.346 0 00-.106-.617 1.024 1.024 0 00-.336-.46.872.872 0 00-.923-.11 1.313 1.313 0 00-.383.277c-.111.114-.203.25-.274.408l-.05.99c.06.094.122.181.188.262.074.074.148.138.223.19.075.046.153.086.236.118.09.026.181.04.272.045zM30.475 10.277a4.564 4.564 0 01-1.42-.303 3.285 3.285 0 01-1.144-.754l.746-1.197c.332.242.653.434.963.576.316.142.604.22.864.233a.766.766 0 00.329-.036c.072-.039.11-.104.115-.195a.2.2 0 00-.066-.161.836.836 0 00-.235-.139 4.627 4.627 0 00-.404-.157 14.396 14.396 0 01-1.073-.486c-.28-.148-.49-.32-.628-.517-.13-.204-.188-.467-.172-.79.02-.378.13-.707.335-.985.204-.285.486-.503.845-.654.366-.15.798-.213 1.296-.188.372.018.741.097 1.107.234.373.132.728.357 1.063.676l-.819 1.183a5.254 5.254 0 00-.87-.508 1.825 1.825 0 00-.636-.169.844.844 0 00-.244.02.317.317 0 00-.152.087.255.255 0 00-.06.166.244.244 0 00.064.182c.047.045.122.09.225.138.104.04.235.09.394.146.47.165.852.328 1.146.49.295.156.507.339.637.55.138.21.198.48.181.81-.029.583-.259 1.028-.69 1.337-.423.31-.989.447-1.697.411zM18.755 17.658a8.013 8.013 0 01-.58.248c-.2.072-.408.13-.624.175a3.776 3.776 0 01-.62.08 2.277 2.277 0 01-.837-.11 1.34 1.34 0 01-.633-.478c-.158-.233-.246-.549-.264-.949l-.112-2.537-.685.03-.066-1.505.684-.03-.077-1.737 2-.089.077 1.737 1.084-.048.067 1.505-1.084.049.081 1.831c.008.183.052.31.133.385.08.066.187.097.32.09.099-.003.21-.026.335-.067.125-.04.25-.088.373-.143l.428 1.563zM24.905 17.691l-2 .09-.139-3.117c-.012-.274-.084-.467-.215-.58a.596.596 0 00-.461-.17.745.745 0 00-.312.108 1.356 1.356 0 00-.58.722l.138 3.106-2 .088-.341-7.684 2-.089.132 2.969a1.9 1.9 0 01.738-.719 2.347 2.347 0 011.052-.289c.393-.017.709.035.946.159.237.115.417.273.538.471.121.199.205.413.25.643.052.23.083.447.092.65l.162 3.642zM25.495 15.988c-.017-.372.07-.703.261-.992.191-.297.462-.534.813-.712a3.043 3.043 0 011.231-.297 3.36 3.36 0 01.613.026c.198.026.369.071.512.135l-.007-.168c-.012-.26-.097-.45-.257-.569-.153-.12-.398-.172-.735-.157-.309.014-.598.08-.867.197-.262.11-.536.27-.823.48l-.634-1.217a4.252 4.252 0 011.146-.579 4.774 4.774 0 011.318-.237c.877-.04 1.563.13 2.058.51.502.371.77.946.805 1.725l.047 1.074c.009.19.043.322.102.396.06.068.16.106.3.114l.075 1.684a3.96 3.96 0 01-.46.094c-.139.027-.265.043-.377.049-.358.015-.634-.036-.83-.154a.94.94 0 01-.383-.563l-.051-.198a2.61 2.61 0 01-.82.764 2.279 2.279 0 01-1.021.288 2.102 2.102 0 01-1-.187 1.781 1.781 0 01-.723-.601 1.714 1.714 0 01-.293-.905zm3.248-.007a.934.934 0 00.181-.187.366.366 0 00.065-.214l-.018-.41a2.387 2.387 0 00-.395-.088 1.948 1.948 0 00-.38-.026c-.239.01-.44.08-.603.206a.543.543 0 00-.222.464.484.484 0 00.096.27c.06.074.14.134.24.179a.85.85 0 00.34.048 1.254 1.254 0 00.696-.242zM35.985 16.894c-.179.085-.372.168-.58.247-.2.072-.409.13-.625.176a3.778 3.778 0 01-.618.08 2.279 2.279 0 01-.839-.11 1.34 1.34 0 01-.633-.479c-.157-.232-.245-.548-.263-.948l-.113-2.537-.684.03-.067-1.505.685-.03-.078-1.737 2-.09.078 1.738 1.084-.048.067 1.505-1.084.048.08 1.832c.009.182.053.31.134.384.08.067.187.097.32.091.099-.004.21-.026.335-.067.125-.04.249-.088.373-.143l.428 1.563z" fill="#fff"></path><path d="M.46 23.764a5.916 5.916 0 016.117-5.708l31.62 1.093a5.916 5.916 0 11-.408 11.825L6.168 29.881A5.916 5.916 0 01.46 23.764z" fill="#C1E94E"></path><path d="M1.151 32.926a5.916 5.916 0 015.555-6.256l32.43-1.926a5.916 5.916 0 01.702 11.812L7.408 38.48a5.916 5.916 0 01-6.257-5.555z" fill="#C1E94E"></path><path d="M17.783 26.73l-2.001-.07.11-3.117c.01-.274-.04-.473-.148-.596a.489.489 0 00-.383-.203c-.155-.006-.326.062-.513.203a1.276 1.276 0 00-.42.555l-.11 3.106-2-.07.109-3.117c.01-.274-.04-.473-.148-.596a.489.489 0 00-.383-.203c-.154-.006-.325.062-.513.203a1.275 1.275 0 00-.42.555l-.11 3.106-2-.07.194-5.54 1.801.064-.029.822c.207-.295.486-.514.835-.656.35-.15.76-.216 1.23-.2.457.016.797.127 1.022.332.225.204.371.43.44.68.207-.296.486-.521.836-.678a2.6 2.6 0 011.167-.212c.365.013.654.09.867.231.213.141.368.319.466.533.105.215.171.438.198.671.027.226.038.434.03.623l-.127 3.644zM18.51 25.08c.013-.373.126-.696.34-.97.213-.28.502-.495.866-.644.37-.148.787-.215 1.25-.198.218.008.421.032.61.074.195.042.362.1.5.176l.006-.169c.009-.26-.062-.455-.212-.587-.143-.132-.383-.203-.72-.215a2.414 2.414 0 00-.88.127c-.27.089-.555.226-.857.413l-.536-1.263c.38-.226.777-.388 1.188-.486a4.775 4.775 0 011.333-.132c.877.03 1.548.255 2.011.672.47.41.692 1.005.665 1.784l-.038 1.074c-.007.19.017.324.07.403.054.072.15.118.29.137l-.059 1.685c-.162.03-.318.048-.465.057a2.577 2.577 0 01-.38.018c-.359-.012-.63-.085-.815-.218a.939.939 0 01-.338-.592l-.035-.201a2.61 2.61 0 01-.879.696c-.328.15-.675.219-1.04.206a2.103 2.103 0 01-.982-.266 1.782 1.782 0 01-.673-.657 1.716 1.716 0 01-.22-.925zm3.238.25a.934.934 0 00.196-.172.366.366 0 00.081-.208l.015-.41a2.39 2.39 0 00-.386-.12 1.96 1.96 0 00-.378-.055 1.03 1.03 0 00-.617.157.543.543 0 00-.258.445.485.485 0 00.075.276c.053.08.128.145.225.198a.85.85 0 00.334.075 1.252 1.252 0 00.713-.186zM28.714 27.115l-1.182-2.066-.415.428-.056 1.58-2-.07.27-7.688 2 .07-.147 4.202 1.546-2.002 2.106.074-1.99 2.355 1.985 3.191-2.117-.074z" fill="#0C3944"></path><path d="M33.636 27.393a3.554 3.554 0 01-1.288-.266 2.866 2.866 0 01-.936-.655 2.696 2.696 0 01-.548-.916 2.866 2.866 0 01-.163-1.07 3.106 3.106 0 01.4-1.452c.247-.441.6-.787 1.059-1.038.459-.258 1.018-.376 1.678-.352.66.023 1.21.176 1.65.458.44.283.768.646.984 1.09a2.98 2.98 0 01.265 1.759c-.01.105-.025.2-.041.283l-3.886-.137c.007.197.054.36.14.49.095.123.21.215.35.276a1.309 1.309 0 001.066-.026.74.74 0 00.403-.397l1.679.544c-.158.29-.374.543-.65.758a3.005 3.005 0 01-.945.504 3.628 3.628 0 01-1.217.147zm-.826-3.498l1.832.065a1.038 1.038 0 00-.142-.47.8.8 0 00-.305-.305.897.897 0 00-.439-.121.959.959 0 00-.456.09.906.906 0 00-.327.283 1.128 1.128 0 00-.163.458zM11.247 35.17a4.568 4.568 0 01-1.442-.162 3.286 3.286 0 01-1.213-.637l.624-1.265c.355.208.693.368 1.015.479.33.11.623.16.883.147a.767.767 0 00.324-.069c.068-.045.1-.114.095-.205a.2.2 0 00-.081-.154.837.837 0 00-.248-.115 4.656 4.656 0 00-.417-.117 14.37 14.37 0 01-1.116-.378c-.294-.12-.52-.27-.676-.453-.15-.19-.233-.445-.248-.768-.019-.38.06-.717.235-1.014.175-.304.434-.548.777-.734.35-.186.774-.29 1.272-.315.372-.018.746.024 1.124.125.384.094.76.283 1.125.568l-.699 1.257c-.361-.2-.667-.34-.917-.42a1.826 1.826 0 00-.649-.105.846.846 0 00-.24.043.316.316 0 00-.143.102.255.255 0 00-.044.171c.003.07.03.129.082.176.051.04.13.078.238.115.107.03.242.065.406.107.484.117.88.242 1.19.374.308.126.537.287.687.484.157.196.244.46.26.79.028.581-.156 1.048-.554 1.397-.391.35-.941.542-1.65.576zM17.025 34.89c-.484.023-.92-.03-1.305-.158a2.863 2.863 0 01-.988-.575 2.693 2.693 0 01-.622-.866 2.864 2.864 0 01-.252-1.054 3.108 3.108 0 01.276-1.48c.21-.46.533-.834.97-1.123.435-.295.983-.459 1.642-.49.66-.033 1.22.074 1.682.319.462.244.82.579 1.072 1.002a2.982 2.982 0 01.412 1.732 2.94 2.94 0 01-.018.285l-3.884.189a.924.924 0 00.181.477.882.882 0 00.371.245 1.307 1.307 0 001.06-.115.74.74 0 00.37-.429l1.718.402a2.442 2.442 0 01-.584.809 3.005 3.005 0 01-.9.582 3.626 3.626 0 01-1.2.248zm-1.115-3.417l1.831-.089a1.038 1.038 0 00-.18-.455.8.8 0 00-.33-.28.895.895 0 00-.448-.083.959.959 0 00-.447.127.906.906 0 00-.301.31c-.072.13-.113.287-.125.47zM26.275 34.335l-2 .097-.15-3.115c-.014-.274-.087-.467-.219-.58a.561.561 0 00-.43-.17.74.74 0 00-.353.123c-.123.07-.234.166-.334.29a1.44 1.44 0 00-.232.424l.15 3.104-2 .098-.268-5.537 1.8-.087.04.821c.123-.21.283-.387.48-.53.197-.15.427-.267.69-.35a3.43 3.43 0 01.868-.147c.38-.019.684.033.915.156.231.122.408.286.53.49.123.206.207.423.254.653.046.223.073.43.083.619l.176 3.641zM29.47 34.286a4.568 4.568 0 01-1.442-.162 3.286 3.286 0 01-1.213-.638l.625-1.264c.354.207.693.367 1.015.478.329.11.623.16.882.147a.767.767 0 00.324-.069c.068-.045.1-.114.096-.205a.2.2 0 00-.082-.154.837.837 0 00-.248-.115 4.632 4.632 0 00-.417-.117c-.443-.133-.814-.259-1.116-.378-.294-.12-.52-.27-.676-.452-.15-.19-.232-.446-.248-.769-.018-.379.06-.717.236-1.014.175-.304.434-.548.776-.734.35-.185.774-.29 1.272-.315.372-.018.747.024 1.124.125.385.094.76.283 1.125.568l-.698 1.258c-.362-.2-.667-.34-.917-.42a1.826 1.826 0 00-.65-.106.842.842 0 00-.24.044.317.317 0 00-.142.102.255.255 0 00-.045.17c.004.07.031.13.082.176.052.04.13.078.238.115.107.03.242.066.406.107.484.117.88.242 1.19.375.308.125.537.287.688.483.157.197.244.46.26.79.028.582-.157 1.048-.555 1.398-.391.35-.94.541-1.65.576zM35.248 34.005c-.484.024-.919-.03-1.305-.158a2.865 2.865 0 01-.988-.575 2.693 2.693 0 01-.622-.866 2.865 2.865 0 01-.252-1.053 3.109 3.109 0 01.277-1.48c.21-.46.532-.835.968-1.123.436-.296.984-.46 1.643-.491.66-.033 1.22.074 1.683.319.462.245.82.579 1.072 1.003a2.98 2.98 0 01.41 1.73c-.001.107-.007.202-.017.287l-3.883.188a.923.923 0 00.18.477.882.882 0 00.371.245 1.307 1.307 0 001.06-.115.74.74 0 00.37-.429l1.718.402a2.441 2.441 0 01-.583.81 3.004 3.004 0 01-.9.58 3.627 3.627 0 01-1.202.25zm-1.115-3.417l1.831-.089a1.038 1.038 0 00-.18-.455.8.8 0 00-.33-.28.896.896 0 00-.447-.083.956.956 0 00-.448.127.904.904 0 00-.301.31c-.071.13-.113.287-.125.47z" fill="#0C3944"></path></svg>